<svg xmlns="http://www.w3.org/2000/svg" width="1100" height="475" viewBox="0 0 1100 475" role="img" aria-labelledby="title desc"><title id="title">Distance makes sampling useful</title><desc id="desc">Two illustrative pairs of words differ in two and eight positions out of 32. Four fixed sample locations miss the first and detect the second.</desc><defs><marker id="arrow" markerWidth="8" markerHeight="8" refX="7" refY="4" orient="auto"><path d="M0 0L8 4L0 8Z" fill="#CD461A"/></marker></defs><rect width="1100" height="475" fill="#FAF9F6"/>
<text x="42" y="53" font-family="Arial, sans-serif" font-size="30" font-weight="600" fill="#202326" text-anchor="start">More disagreement, more chances to catch it</text>
<text x="42" y="86" font-family="Arial, sans-serif" font-size="19" font-weight="400" fill="#5E656B" text-anchor="start">The same four sampled positions are outlined in green.</text>
<text x="42" y="171" font-family="Arial, sans-serif" font-size="20" font-weight="400" fill="#202326" text-anchor="start">Word A</text>
<text x="42" y="214" font-family="Arial, sans-serif" font-size="20" font-weight="400" fill="#202326" text-anchor="start">Word B</text>
<rect x="160" y="149" width="25" height="32" rx="2" fill="#E8E8E2" stroke="#FAF9F6" stroke-width="1.4"/>
<text x="172.5" y="172" font-family="Arial, sans-serif" font-size="22" font-weight="400" fill="#5E656B" text-anchor="middle">0</text>
<rect x="160" y="192" width="25" height="32" rx="2" fill="#E8E8E2" stroke="#FAF9F6" stroke-width="1.4"/>
<text x="172.5" y="215" font-family="Arial, sans-serif" font-size="22" font-weight="400" fill="#5E656B" text-anchor="middle">0</text>
<rect x="187" y="149" width="25" height="32" rx="2" fill="#E8E8E2" stroke="#FAF9F6" stroke-width="1.4"/>
<text x="199.5" y="172" font-family="Arial, sans-serif" font-size="22" font-weight="400" fill="#5E656B" text-anchor="middle">1</text>
<rect x="187" y="192" width="25" height="32" rx="2" fill="#E8E8E2" stroke="#FAF9F6" stroke-width="1.4"/>
<text x="199.5" y="215" font-family="Arial, sans-serif" font-size="22" font-weight="400" fill="#5E656B" text-anchor="middle">1</text>
<rect x="214" y="149" width="25" height="32" rx="2" fill="#E8E8E2" stroke="#FAF9F6" stroke-width="1.4"/>
<text x="226.5" y="172" font-family="Arial, sans-serif" font-size="22" font-weight="400" fill="#5E656B" text-anchor="middle">0</text>
<rect x="214" y="192" width="25" height="32" rx="2" fill="#E8E8E2" stroke="#FAF9F6" stroke-width="1.4"/>
<text x="226.5" y="215" font-family="Arial, sans-serif" font-size="22" font-weight="400" fill="#5E656B" text-anchor="middle">0</text>
<rect x="212" y="145" width="29" height="83" rx="4" fill="none" stroke="#267660" stroke-width="2.5"/>
<rect x="241" y="149" width="25" height="32" rx="2" fill="#E8E8E2" stroke="#FAF9F6" stroke-width="1.4"/>
<text x="253.5" y="172" font-family="Arial, sans-serif" font-size="22" font-weight="400" fill="#5E656B" text-anchor="middle">1</text>
<rect x="241" y="192" width="25" height="32" rx="2" fill="#E8E8E2" stroke="#FAF9F6" stroke-width="1.4"/>
<text x="253.5" y="215" font-family="Arial, sans-serif" font-size="22" font-weight="400" fill="#5E656B" text-anchor="middle">1</text>
<rect x="268" y="149" width="25" height="32" rx="2" fill="#E8E8E2" stroke="#FAF9F6" stroke-width="1.4"/>
<text x="280.5" y="172" font-family="Arial, sans-serif" font-size="22" font-weight="400" fill="#5E656B" text-anchor="middle">1</text>
<rect x="268" y="192" width="25" height="32" rx="2" fill="#E8E8E2" stroke="#FAF9F6" stroke-width="1.4"/>
<text x="280.5" y="215" font-family="Arial, sans-serif" font-size="22" font-weight="400" fill="#5E656B" text-anchor="middle">1</text>
<rect x="295" y="149" width="25" height="32" rx="2" fill="#E8E8E2" stroke="#FAF9F6" stroke-width="1.4"/>
<text x="307.5" y="172" font-family="Arial, sans-serif" font-size="22" font-weight="400" fill="#5E656B" text-anchor="middle">0</text>
<rect x="295" y="192" width="25" height="32" rx="2" fill="#E8E8E2" stroke="#FAF9F6" stroke-width="1.4"/>
<text x="307.5" y="215" font-family="Arial, sans-serif" font-size="22" font-weight="400" fill="#5E656B" text-anchor="middle">0</text>
<rect x="322" y="149" width="25" height="32" rx="2" fill="#E8E8E2" stroke="#FAF9F6" stroke-width="1.4"/>
<text x="334.5" y="172" font-family="Arial, sans-serif" font-size="22" font-weight="400" fill="#5E656B" text-anchor="middle">0</text>
<rect x="322" y="192" width="25" height="32" rx="2" fill="#E8E8E2" stroke="#FAF9F6" stroke-width="1.4"/>
<text x="334.5" y="215" font-family="Arial, sans-serif" font-size="22" font-weight="400" fill="#5E656B" text-anchor="middle">0</text>
<rect x="349" y="149" width="25" height="32" rx="2" fill="#CD461A" stroke="#CD461A" stroke-width="1.4"/>
<text x="361.5" y="172" font-family="Arial, sans-serif" font-size="22" font-weight="700" fill="#fff" text-anchor="middle">1</text>
<rect x="349" y="192" width="25" height="32" rx="2" fill="#FADED1" stroke="#CD461A" stroke-width="1.4"/>
<text x="361.5" y="215" font-family="Arial, sans-serif" font-size="22" font-weight="400" fill="#CD461A" text-anchor="middle">0</text>
<rect x="376" y="149" width="25" height="32" rx="2" fill="#E8E8E2" stroke="#FAF9F6" stroke-width="1.4"/>
<text x="388.5" y="172" font-family="Arial, sans-serif" font-size="22" font-weight="400" fill="#5E656B" text-anchor="middle">0</text>
<rect x="376" y="192" width="25" height="32" rx="2" fill="#E8E8E2" stroke="#FAF9F6" stroke-width="1.4"/>
<text x="388.5" y="215" font-family="Arial, sans-serif" font-size="22" font-weight="400" fill="#5E656B" text-anchor="middle">0</text>
<rect x="403" y="149" width="25" height="32" rx="2" fill="#E8E8E2" stroke="#FAF9F6" stroke-width="1.4"/>
<text x="415.5" y="172" font-family="Arial, sans-serif" font-size="22" font-weight="400" fill="#5E656B" text-anchor="middle">1</text>
<rect x="403" y="192" width="25" height="32" rx="2" fill="#E8E8E2" stroke="#FAF9F6" stroke-width="1.4"/>
<text x="415.5" y="215" font-family="Arial, sans-serif" font-size="22" font-weight="400" fill="#5E656B" text-anchor="middle">1</text>
<rect x="401" y="145" width="29" height="83" rx="4" fill="none" stroke="#267660" stroke-width="2.5"/>
<rect x="430" y="149" width="25" height="32" rx="2" fill="#E8E8E2" stroke="#FAF9F6" stroke-width="1.4"/>
<text x="442.5" y="172" font-family="Arial, sans-serif" font-size="22" font-weight="400" fill="#5E656B" text-anchor="middle">0</text>
<rect x="430" y="192" width="25" height="32" rx="2" fill="#E8E8E2" stroke="#FAF9F6" stroke-width="1.4"/>
<text x="442.5" y="215" font-family="Arial, sans-serif" font-size="22" font-weight="400" fill="#5E656B" text-anchor="middle">0</text>
<rect x="457" y="149" width="25" height="32" rx="2" fill="#E8E8E2" stroke="#FAF9F6" stroke-width="1.4"/>
<text x="469.5" y="172" font-family="Arial, sans-serif" font-size="22" font-weight="400" fill="#5E656B" text-anchor="middle">1</text>
<rect x="457" y="192" width="25" height="32" rx="2" fill="#E8E8E2" stroke="#FAF9F6" stroke-width="1.4"/>
<text x="469.5" y="215" font-family="Arial, sans-serif" font-size="22" font-weight="400" fill="#5E656B" text-anchor="middle">1</text>
<rect x="484" y="149" width="25" height="32" rx="2" fill="#E8E8E2" stroke="#FAF9F6" stroke-width="1.4"/>
<text x="496.5" y="172" font-family="Arial, sans-serif" font-size="22" font-weight="400" fill="#5E656B" text-anchor="middle">1</text>
<rect x="484" y="192" width="25" height="32" rx="2" fill="#E8E8E2" stroke="#FAF9F6" stroke-width="1.4"/>
<text x="496.5" y="215" font-family="Arial, sans-serif" font-size="22" font-weight="400" fill="#5E656B" text-anchor="middle">1</text>
<rect x="511" y="149" width="25" height="32" rx="2" fill="#E8E8E2" stroke="#FAF9F6" stroke-width="1.4"/>
<text x="523.5" y="172" font-family="Arial, sans-serif" font-size="22" font-weight="400" fill="#5E656B" text-anchor="middle">0</text>
<rect x="511" y="192" width="25" height="32" rx="2" fill="#E8E8E2" stroke="#FAF9F6" stroke-width="1.4"/>
<text x="523.5" y="215" font-family="Arial, sans-serif" font-size="22" font-weight="400" fill="#5E656B" text-anchor="middle">0</text>
<rect x="538" y="149" width="25" height="32" rx="2" fill="#E8E8E2" stroke="#FAF9F6" stroke-width="1.4"/>
<text x="550.5" y="172" font-family="Arial, sans-serif" font-size="22" font-weight="400" fill="#5E656B" text-anchor="middle">0</text>
<rect x="538" y="192" width="25" height="32" rx="2" fill="#E8E8E2" stroke="#FAF9F6" stroke-width="1.4"/>
<text x="550.5" y="215" font-family="Arial, sans-serif" font-size="22" font-weight="400" fill="#5E656B" text-anchor="middle">0</text>
<rect x="565" y="149" width="25" height="32" rx="2" fill="#E8E8E2" stroke="#FAF9F6" stroke-width="1.4"/>
<text x="577.5" y="172" font-family="Arial, sans-serif" font-size="22" font-weight="400" fill="#5E656B" text-anchor="middle">1</text>
<rect x="565" y="192" width="25" height="32" rx="2" fill="#E8E8E2" stroke="#FAF9F6" stroke-width="1.4"/>
<text x="577.5" y="215" font-family="Arial, sans-serif" font-size="22" font-weight="400" fill="#5E656B" text-anchor="middle">1</text>
<rect x="592" y="149" width="25" height="32" rx="2" fill="#E8E8E2" stroke="#FAF9F6" stroke-width="1.4"/>
<text x="604.5" y="172" font-family="Arial, sans-serif" font-size="22" font-weight="400" fill="#5E656B" text-anchor="middle">0</text>
<rect x="592" y="192" width="25" height="32" rx="2" fill="#E8E8E2" stroke="#FAF9F6" stroke-width="1.4"/>
<text x="604.5" y="215" font-family="Arial, sans-serif" font-size="22" font-weight="400" fill="#5E656B" text-anchor="middle">0</text>
<rect x="619" y="149" width="25" height="32" rx="2" fill="#E8E8E2" stroke="#FAF9F6" stroke-width="1.4"/>
<text x="631.5" y="172" font-family="Arial, sans-serif" font-size="22" font-weight="400" fill="#5E656B" text-anchor="middle">1</text>
<rect x="619" y="192" width="25" height="32" rx="2" fill="#E8E8E2" stroke="#FAF9F6" stroke-width="1.4"/>
<text x="631.5" y="215" font-family="Arial, sans-serif" font-size="22" font-weight="400" fill="#5E656B" text-anchor="middle">1</text>
<rect x="646" y="149" width="25" height="32" rx="2" fill="#E8E8E2" stroke="#FAF9F6" stroke-width="1.4"/>
<text x="658.5" y="172" font-family="Arial, sans-serif" font-size="22" font-weight="400" fill="#5E656B" text-anchor="middle">0</text>
<rect x="646" y="192" width="25" height="32" rx="2" fill="#E8E8E2" stroke="#FAF9F6" stroke-width="1.4"/>
<text x="658.5" y="215" font-family="Arial, sans-serif" font-size="22" font-weight="400" fill="#5E656B" text-anchor="middle">0</text>
<rect x="644" y="145" width="29" height="83" rx="4" fill="none" stroke="#267660" stroke-width="2.5"/>
<rect x="673" y="149" width="25" height="32" rx="2" fill="#E8E8E2" stroke="#FAF9F6" stroke-width="1.4"/>
<text x="685.5" y="172" font-family="Arial, sans-serif" font-size="22" font-weight="400" fill="#5E656B" text-anchor="middle">1</text>
<rect x="673" y="192" width="25" height="32" rx="2" fill="#E8E8E2" stroke="#FAF9F6" stroke-width="1.4"/>
<text x="685.5" y="215" font-family="Arial, sans-serif" font-size="22" font-weight="400" fill="#5E656B" text-anchor="middle">1</text>
<rect x="700" y="149" width="25" height="32" rx="2" fill="#E8E8E2" stroke="#FAF9F6" stroke-width="1.4"/>
<text x="712.5" y="172" font-family="Arial, sans-serif" font-size="22" font-weight="400" fill="#5E656B" text-anchor="middle">1</text>
<rect x="700" y="192" width="25" height="32" rx="2" fill="#E8E8E2" stroke="#FAF9F6" stroke-width="1.4"/>
<text x="712.5" y="215" font-family="Arial, sans-serif" font-size="22" font-weight="400" fill="#5E656B" text-anchor="middle">1</text>
<rect x="727" y="149" width="25" height="32" rx="2" fill="#E8E8E2" stroke="#FAF9F6" stroke-width="1.4"/>
<text x="739.5" y="172" font-family="Arial, sans-serif" font-size="22" font-weight="400" fill="#5E656B" text-anchor="middle">0</text>
<rect x="727" y="192" width="25" height="32" rx="2" fill="#E8E8E2" stroke="#FAF9F6" stroke-width="1.4"/>
<text x="739.5" y="215" font-family="Arial, sans-serif" font-size="22" font-weight="400" fill="#5E656B" text-anchor="middle">0</text>
<rect x="754" y="149" width="25" height="32" rx="2" fill="#FADED1" stroke="#CD461A" stroke-width="1.4"/>
<text x="766.5" y="172" font-family="Arial, sans-serif" font-size="22" font-weight="400" fill="#CD461A" text-anchor="middle">0</text>
<rect x="754" y="192" width="25" height="32" rx="2" fill="#CD461A" stroke="#CD461A" stroke-width="1.4"/>
<text x="766.5" y="215" font-family="Arial, sans-serif" font-size="22" font-weight="700" fill="#fff" text-anchor="middle">1</text>
<rect x="781" y="149" width="25" height="32" rx="2" fill="#E8E8E2" stroke="#FAF9F6" stroke-width="1.4"/>
<text x="793.5" y="172" font-family="Arial, sans-serif" font-size="22" font-weight="400" fill="#5E656B" text-anchor="middle">1</text>
<rect x="781" y="192" width="25" height="32" rx="2" fill="#E8E8E2" stroke="#FAF9F6" stroke-width="1.4"/>
<text x="793.5" y="215" font-family="Arial, sans-serif" font-size="22" font-weight="400" fill="#5E656B" text-anchor="middle">1</text>
<rect x="808" y="149" width="25" height="32" rx="2" fill="#E8E8E2" stroke="#FAF9F6" stroke-width="1.4"/>
<text x="820.5" y="172" font-family="Arial, sans-serif" font-size="22" font-weight="400" fill="#5E656B" text-anchor="middle">0</text>
<rect x="808" y="192" width="25" height="32" rx="2" fill="#E8E8E2" stroke="#FAF9F6" stroke-width="1.4"/>
<text x="820.5" y="215" font-family="Arial, sans-serif" font-size="22" font-weight="400" fill="#5E656B" text-anchor="middle">0</text>
<rect x="835" y="149" width="25" height="32" rx="2" fill="#E8E8E2" stroke="#FAF9F6" stroke-width="1.4"/>
<text x="847.5" y="172" font-family="Arial, sans-serif" font-size="22" font-weight="400" fill="#5E656B" text-anchor="middle">1</text>
<rect x="835" y="192" width="25" height="32" rx="2" fill="#E8E8E2" stroke="#FAF9F6" stroke-width="1.4"/>
<text x="847.5" y="215" font-family="Arial, sans-serif" font-size="22" font-weight="400" fill="#5E656B" text-anchor="middle">1</text>
<rect x="833" y="145" width="29" height="83" rx="4" fill="none" stroke="#267660" stroke-width="2.5"/>
<rect x="862" y="149" width="25" height="32" rx="2" fill="#E8E8E2" stroke="#FAF9F6" stroke-width="1.4"/>
<text x="874.5" y="172" font-family="Arial, sans-serif" font-size="22" font-weight="400" fill="#5E656B" text-anchor="middle">0</text>
<rect x="862" y="192" width="25" height="32" rx="2" fill="#E8E8E2" stroke="#FAF9F6" stroke-width="1.4"/>
<text x="874.5" y="215" font-family="Arial, sans-serif" font-size="22" font-weight="400" fill="#5E656B" text-anchor="middle">0</text>
<rect x="889" y="149" width="25" height="32" rx="2" fill="#E8E8E2" stroke="#FAF9F6" stroke-width="1.4"/>
<text x="901.5" y="172" font-family="Arial, sans-serif" font-size="22" font-weight="400" fill="#5E656B" text-anchor="middle">1</text>
<rect x="889" y="192" width="25" height="32" rx="2" fill="#E8E8E2" stroke="#FAF9F6" stroke-width="1.4"/>
<text x="901.5" y="215" font-family="Arial, sans-serif" font-size="22" font-weight="400" fill="#5E656B" text-anchor="middle">1</text>
<rect x="916" y="149" width="25" height="32" rx="2" fill="#E8E8E2" stroke="#FAF9F6" stroke-width="1.4"/>
<text x="928.5" y="172" font-family="Arial, sans-serif" font-size="22" font-weight="400" fill="#5E656B" text-anchor="middle">1</text>
<rect x="916" y="192" width="25" height="32" rx="2" fill="#E8E8E2" stroke="#FAF9F6" stroke-width="1.4"/>
<text x="928.5" y="215" font-family="Arial, sans-serif" font-size="22" font-weight="400" fill="#5E656B" text-anchor="middle">1</text>
<rect x="943" y="149" width="25" height="32" rx="2" fill="#E8E8E2" stroke="#FAF9F6" stroke-width="1.4"/>
<text x="955.5" y="172" font-family="Arial, sans-serif" font-size="22" font-weight="400" fill="#5E656B" text-anchor="middle">0</text>
<rect x="943" y="192" width="25" height="32" rx="2" fill="#E8E8E2" stroke="#FAF9F6" stroke-width="1.4"/>
<text x="955.5" y="215" font-family="Arial, sans-serif" font-size="22" font-weight="400" fill="#5E656B" text-anchor="middle">0</text>
<rect x="970" y="149" width="25" height="32" rx="2" fill="#E8E8E2" stroke="#FAF9F6" stroke-width="1.4"/>
<text x="982.5" y="172" font-family="Arial, sans-serif" font-size="22" font-weight="400" fill="#5E656B" text-anchor="middle">0</text>
<rect x="970" y="192" width="25" height="32" rx="2" fill="#E8E8E2" stroke="#FAF9F6" stroke-width="1.4"/>
<text x="982.5" y="215" font-family="Arial, sans-serif" font-size="22" font-weight="400" fill="#5E656B" text-anchor="middle">0</text>
<rect x="997" y="149" width="25" height="32" rx="2" fill="#E8E8E2" stroke="#FAF9F6" stroke-width="1.4"/>
<text x="1009.5" y="172" font-family="Arial, sans-serif" font-size="22" font-weight="400" fill="#5E656B" text-anchor="middle">1</text>
<rect x="997" y="192" width="25" height="32" rx="2" fill="#E8E8E2" stroke="#FAF9F6" stroke-width="1.4"/>
<text x="1009.5" y="215" font-family="Arial, sans-serif" font-size="22" font-weight="400" fill="#5E656B" text-anchor="middle">1</text>
<text x="160" y="254" font-family="Arial, sans-serif" font-size="21" font-weight="600" fill="#CD461A" text-anchor="start">2 / 32 differ</text>
<text x="1024" y="254" font-family="Arial, sans-serif" font-size="20" font-weight="400" fill="#5E656B" text-anchor="end">All four samples miss.</text>
<text x="42" y="338" font-family="Arial, sans-serif" font-size="20" font-weight="400" fill="#202326" text-anchor="start">Word A</text>
<text x="42" y="381" font-family="Arial, sans-serif" font-size="20" font-weight="400" fill="#202326" text-anchor="start">Word B</text>
<rect x="160" y="316" width="25" height="32" rx="2" fill="#E8E8E2" stroke="#FAF9F6" stroke-width="1.4"/>
<text x="172.5" y="339" font-family="Arial, sans-serif" font-size="22" font-weight="400" fill="#5E656B" text-anchor="middle">0</text>
<rect x="160" y="359" width="25" height="32" rx="2" fill="#E8E8E2" stroke="#FAF9F6" stroke-width="1.4"/>
<text x="172.5" y="382" font-family="Arial, sans-serif" font-size="22" font-weight="400" fill="#5E656B" text-anchor="middle">0</text>
<rect x="187" y="316" width="25" height="32" rx="2" fill="#CD461A" stroke="#CD461A" stroke-width="1.4"/>
<text x="199.5" y="339" font-family="Arial, sans-serif" font-size="22" font-weight="700" fill="#fff" text-anchor="middle">1</text>
<rect x="187" y="359" width="25" height="32" rx="2" fill="#FADED1" stroke="#CD461A" stroke-width="1.4"/>
<text x="199.5" y="382" font-family="Arial, sans-serif" font-size="22" font-weight="400" fill="#CD461A" text-anchor="middle">0</text>
<rect x="214" y="316" width="25" height="32" rx="2" fill="#E8E8E2" stroke="#FAF9F6" stroke-width="1.4"/>
<text x="226.5" y="339" font-family="Arial, sans-serif" font-size="22" font-weight="400" fill="#5E656B" text-anchor="middle">0</text>
<rect x="214" y="359" width="25" height="32" rx="2" fill="#E8E8E2" stroke="#FAF9F6" stroke-width="1.4"/>
<text x="226.5" y="382" font-family="Arial, sans-serif" font-size="22" font-weight="400" fill="#5E656B" text-anchor="middle">0</text>
<rect x="212" y="312" width="29" height="83" rx="4" fill="none" stroke="#267660" stroke-width="2.5"/>
<rect x="241" y="316" width="25" height="32" rx="2" fill="#E8E8E2" stroke="#FAF9F6" stroke-width="1.4"/>
<text x="253.5" y="339" font-family="Arial, sans-serif" font-size="22" font-weight="400" fill="#5E656B" text-anchor="middle">1</text>
<rect x="241" y="359" width="25" height="32" rx="2" fill="#E8E8E2" stroke="#FAF9F6" stroke-width="1.4"/>
<text x="253.5" y="382" font-family="Arial, sans-serif" font-size="22" font-weight="400" fill="#5E656B" text-anchor="middle">1</text>
<rect x="268" y="316" width="25" height="32" rx="2" fill="#E8E8E2" stroke="#FAF9F6" stroke-width="1.4"/>
<text x="280.5" y="339" font-family="Arial, sans-serif" font-size="22" font-weight="400" fill="#5E656B" text-anchor="middle">1</text>
<rect x="268" y="359" width="25" height="32" rx="2" fill="#E8E8E2" stroke="#FAF9F6" stroke-width="1.4"/>
<text x="280.5" y="382" font-family="Arial, sans-serif" font-size="22" font-weight="400" fill="#5E656B" text-anchor="middle">1</text>
<rect x="295" y="316" width="25" height="32" rx="2" fill="#FADED1" stroke="#CD461A" stroke-width="1.4"/>
<text x="307.5" y="339" font-family="Arial, sans-serif" font-size="22" font-weight="400" fill="#CD461A" text-anchor="middle">0</text>
<rect x="295" y="359" width="25" height="32" rx="2" fill="#CD461A" stroke="#CD461A" stroke-width="1.4"/>
<text x="307.5" y="382" font-family="Arial, sans-serif" font-size="22" font-weight="700" fill="#fff" text-anchor="middle">1</text>
<rect x="322" y="316" width="25" height="32" rx="2" fill="#E8E8E2" stroke="#FAF9F6" stroke-width="1.4"/>
<text x="334.5" y="339" font-family="Arial, sans-serif" font-size="22" font-weight="400" fill="#5E656B" text-anchor="middle">0</text>
<rect x="322" y="359" width="25" height="32" rx="2" fill="#E8E8E2" stroke="#FAF9F6" stroke-width="1.4"/>
<text x="334.5" y="382" font-family="Arial, sans-serif" font-size="22" font-weight="400" fill="#5E656B" text-anchor="middle">0</text>
<rect x="349" y="316" width="25" height="32" rx="2" fill="#E8E8E2" stroke="#FAF9F6" stroke-width="1.4"/>
<text x="361.5" y="339" font-family="Arial, sans-serif" font-size="22" font-weight="400" fill="#5E656B" text-anchor="middle">1</text>
<rect x="349" y="359" width="25" height="32" rx="2" fill="#E8E8E2" stroke="#FAF9F6" stroke-width="1.4"/>
<text x="361.5" y="382" font-family="Arial, sans-serif" font-size="22" font-weight="400" fill="#5E656B" text-anchor="middle">1</text>
<rect x="376" y="316" width="25" height="32" rx="2" fill="#E8E8E2" stroke="#FAF9F6" stroke-width="1.4"/>
<text x="388.5" y="339" font-family="Arial, sans-serif" font-size="22" font-weight="400" fill="#5E656B" text-anchor="middle">0</text>
<rect x="376" y="359" width="25" height="32" rx="2" fill="#E8E8E2" stroke="#FAF9F6" stroke-width="1.4"/>
<text x="388.5" y="382" font-family="Arial, sans-serif" font-size="22" font-weight="400" fill="#5E656B" text-anchor="middle">0</text>
<rect x="403" y="316" width="25" height="32" rx="2" fill="#CD461A" stroke="#CD461A" stroke-width="1.4"/>
<text x="415.5" y="339" font-family="Arial, sans-serif" font-size="22" font-weight="700" fill="#fff" text-anchor="middle">1</text>
<rect x="403" y="359" width="25" height="32" rx="2" fill="#FADED1" stroke="#CD461A" stroke-width="1.4"/>
<text x="415.5" y="382" font-family="Arial, sans-serif" font-size="22" font-weight="400" fill="#CD461A" text-anchor="middle">0</text>
<rect x="401" y="312" width="29" height="83" rx="4" fill="none" stroke="#267660" stroke-width="2.5"/>
<rect x="430" y="316" width="25" height="32" rx="2" fill="#E8E8E2" stroke="#FAF9F6" stroke-width="1.4"/>
<text x="442.5" y="339" font-family="Arial, sans-serif" font-size="22" font-weight="400" fill="#5E656B" text-anchor="middle">0</text>
<rect x="430" y="359" width="25" height="32" rx="2" fill="#E8E8E2" stroke="#FAF9F6" stroke-width="1.4"/>
<text x="442.5" y="382" font-family="Arial, sans-serif" font-size="22" font-weight="400" fill="#5E656B" text-anchor="middle">0</text>
<rect x="457" y="316" width="25" height="32" rx="2" fill="#E8E8E2" stroke="#FAF9F6" stroke-width="1.4"/>
<text x="469.5" y="339" font-family="Arial, sans-serif" font-size="22" font-weight="400" fill="#5E656B" text-anchor="middle">1</text>
<rect x="457" y="359" width="25" height="32" rx="2" fill="#E8E8E2" stroke="#FAF9F6" stroke-width="1.4"/>
<text x="469.5" y="382" font-family="Arial, sans-serif" font-size="22" font-weight="400" fill="#5E656B" text-anchor="middle">1</text>
<rect x="484" y="316" width="25" height="32" rx="2" fill="#E8E8E2" stroke="#FAF9F6" stroke-width="1.4"/>
<text x="496.5" y="339" font-family="Arial, sans-serif" font-size="22" font-weight="400" fill="#5E656B" text-anchor="middle">1</text>
<rect x="484" y="359" width="25" height="32" rx="2" fill="#E8E8E2" stroke="#FAF9F6" stroke-width="1.4"/>
<text x="496.5" y="382" font-family="Arial, sans-serif" font-size="22" font-weight="400" fill="#5E656B" text-anchor="middle">1</text>
<rect x="511" y="316" width="25" height="32" rx="2" fill="#FADED1" stroke="#CD461A" stroke-width="1.4"/>
<text x="523.5" y="339" font-family="Arial, sans-serif" font-size="22" font-weight="400" fill="#CD461A" text-anchor="middle">0</text>
<rect x="511" y="359" width="25" height="32" rx="2" fill="#CD461A" stroke="#CD461A" stroke-width="1.4"/>
<text x="523.5" y="382" font-family="Arial, sans-serif" font-size="22" font-weight="700" fill="#fff" text-anchor="middle">1</text>
<rect x="538" y="316" width="25" height="32" rx="2" fill="#E8E8E2" stroke="#FAF9F6" stroke-width="1.4"/>
<text x="550.5" y="339" font-family="Arial, sans-serif" font-size="22" font-weight="400" fill="#5E656B" text-anchor="middle">0</text>
<rect x="538" y="359" width="25" height="32" rx="2" fill="#E8E8E2" stroke="#FAF9F6" stroke-width="1.4"/>
<text x="550.5" y="382" font-family="Arial, sans-serif" font-size="22" font-weight="400" fill="#5E656B" text-anchor="middle">0</text>
<rect x="565" y="316" width="25" height="32" rx="2" fill="#E8E8E2" stroke="#FAF9F6" stroke-width="1.4"/>
<text x="577.5" y="339" font-family="Arial, sans-serif" font-size="22" font-weight="400" fill="#5E656B" text-anchor="middle">1</text>
<rect x="565" y="359" width="25" height="32" rx="2" fill="#E8E8E2" stroke="#FAF9F6" stroke-width="1.4"/>
<text x="577.5" y="382" font-family="Arial, sans-serif" font-size="22" font-weight="400" fill="#5E656B" text-anchor="middle">1</text>
<rect x="592" y="316" width="25" height="32" rx="2" fill="#E8E8E2" stroke="#FAF9F6" stroke-width="1.4"/>
<text x="604.5" y="339" font-family="Arial, sans-serif" font-size="22" font-weight="400" fill="#5E656B" text-anchor="middle">0</text>
<rect x="592" y="359" width="25" height="32" rx="2" fill="#E8E8E2" stroke="#FAF9F6" stroke-width="1.4"/>
<text x="604.5" y="382" font-family="Arial, sans-serif" font-size="22" font-weight="400" fill="#5E656B" text-anchor="middle">0</text>
<rect x="619" y="316" width="25" height="32" rx="2" fill="#CD461A" stroke="#CD461A" stroke-width="1.4"/>
<text x="631.5" y="339" font-family="Arial, sans-serif" font-size="22" font-weight="700" fill="#fff" text-anchor="middle">1</text>
<rect x="619" y="359" width="25" height="32" rx="2" fill="#FADED1" stroke="#CD461A" stroke-width="1.4"/>
<text x="631.5" y="382" font-family="Arial, sans-serif" font-size="22" font-weight="400" fill="#CD461A" text-anchor="middle">0</text>
<rect x="646" y="316" width="25" height="32" rx="2" fill="#E8E8E2" stroke="#FAF9F6" stroke-width="1.4"/>
<text x="658.5" y="339" font-family="Arial, sans-serif" font-size="22" font-weight="400" fill="#5E656B" text-anchor="middle">0</text>
<rect x="646" y="359" width="25" height="32" rx="2" fill="#E8E8E2" stroke="#FAF9F6" stroke-width="1.4"/>
<text x="658.5" y="382" font-family="Arial, sans-serif" font-size="22" font-weight="400" fill="#5E656B" text-anchor="middle">0</text>
<rect x="644" y="312" width="29" height="83" rx="4" fill="none" stroke="#267660" stroke-width="2.5"/>
<rect x="673" y="316" width="25" height="32" rx="2" fill="#E8E8E2" stroke="#FAF9F6" stroke-width="1.4"/>
<text x="685.5" y="339" font-family="Arial, sans-serif" font-size="22" font-weight="400" fill="#5E656B" text-anchor="middle">1</text>
<rect x="673" y="359" width="25" height="32" rx="2" fill="#E8E8E2" stroke="#FAF9F6" stroke-width="1.4"/>
<text x="685.5" y="382" font-family="Arial, sans-serif" font-size="22" font-weight="400" fill="#5E656B" text-anchor="middle">1</text>
<rect x="700" y="316" width="25" height="32" rx="2" fill="#E8E8E2" stroke="#FAF9F6" stroke-width="1.4"/>
<text x="712.5" y="339" font-family="Arial, sans-serif" font-size="22" font-weight="400" fill="#5E656B" text-anchor="middle">1</text>
<rect x="700" y="359" width="25" height="32" rx="2" fill="#E8E8E2" stroke="#FAF9F6" stroke-width="1.4"/>
<text x="712.5" y="382" font-family="Arial, sans-serif" font-size="22" font-weight="400" fill="#5E656B" text-anchor="middle">1</text>
<rect x="727" y="316" width="25" height="32" rx="2" fill="#FADED1" stroke="#CD461A" stroke-width="1.4"/>
<text x="739.5" y="339" font-family="Arial, sans-serif" font-size="22" font-weight="400" fill="#CD461A" text-anchor="middle">0</text>
<rect x="727" y="359" width="25" height="32" rx="2" fill="#CD461A" stroke="#CD461A" stroke-width="1.4"/>
<text x="739.5" y="382" font-family="Arial, sans-serif" font-size="22" font-weight="700" fill="#fff" text-anchor="middle">1</text>
<rect x="754" y="316" width="25" height="32" rx="2" fill="#E8E8E2" stroke="#FAF9F6" stroke-width="1.4"/>
<text x="766.5" y="339" font-family="Arial, sans-serif" font-size="22" font-weight="400" fill="#5E656B" text-anchor="middle">0</text>
<rect x="754" y="359" width="25" height="32" rx="2" fill="#E8E8E2" stroke="#FAF9F6" stroke-width="1.4"/>
<text x="766.5" y="382" font-family="Arial, sans-serif" font-size="22" font-weight="400" fill="#5E656B" text-anchor="middle">0</text>
<rect x="781" y="316" width="25" height="32" rx="2" fill="#E8E8E2" stroke="#FAF9F6" stroke-width="1.4"/>
<text x="793.5" y="339" font-family="Arial, sans-serif" font-size="22" font-weight="400" fill="#5E656B" text-anchor="middle">1</text>
<rect x="781" y="359" width="25" height="32" rx="2" fill="#E8E8E2" stroke="#FAF9F6" stroke-width="1.4"/>
<text x="793.5" y="382" font-family="Arial, sans-serif" font-size="22" font-weight="400" fill="#5E656B" text-anchor="middle">1</text>
<rect x="808" y="316" width="25" height="32" rx="2" fill="#E8E8E2" stroke="#FAF9F6" stroke-width="1.4"/>
<text x="820.5" y="339" font-family="Arial, sans-serif" font-size="22" font-weight="400" fill="#5E656B" text-anchor="middle">0</text>
<rect x="808" y="359" width="25" height="32" rx="2" fill="#E8E8E2" stroke="#FAF9F6" stroke-width="1.4"/>
<text x="820.5" y="382" font-family="Arial, sans-serif" font-size="22" font-weight="400" fill="#5E656B" text-anchor="middle">0</text>
<rect x="835" y="316" width="25" height="32" rx="2" fill="#CD461A" stroke="#CD461A" stroke-width="1.4"/>
<text x="847.5" y="339" font-family="Arial, sans-serif" font-size="22" font-weight="700" fill="#fff" text-anchor="middle">1</text>
<rect x="835" y="359" width="25" height="32" rx="2" fill="#FADED1" stroke="#CD461A" stroke-width="1.4"/>
<text x="847.5" y="382" font-family="Arial, sans-serif" font-size="22" font-weight="400" fill="#CD461A" text-anchor="middle">0</text>
<rect x="833" y="312" width="29" height="83" rx="4" fill="none" stroke="#267660" stroke-width="2.5"/>
<rect x="862" y="316" width="25" height="32" rx="2" fill="#E8E8E2" stroke="#FAF9F6" stroke-width="1.4"/>
<text x="874.5" y="339" font-family="Arial, sans-serif" font-size="22" font-weight="400" fill="#5E656B" text-anchor="middle">0</text>
<rect x="862" y="359" width="25" height="32" rx="2" fill="#E8E8E2" stroke="#FAF9F6" stroke-width="1.4"/>
<text x="874.5" y="382" font-family="Arial, sans-serif" font-size="22" font-weight="400" fill="#5E656B" text-anchor="middle">0</text>
<rect x="889" y="316" width="25" height="32" rx="2" fill="#E8E8E2" stroke="#FAF9F6" stroke-width="1.4"/>
<text x="901.5" y="339" font-family="Arial, sans-serif" font-size="22" font-weight="400" fill="#5E656B" text-anchor="middle">1</text>
<rect x="889" y="359" width="25" height="32" rx="2" fill="#E8E8E2" stroke="#FAF9F6" stroke-width="1.4"/>
<text x="901.5" y="382" font-family="Arial, sans-serif" font-size="22" font-weight="400" fill="#5E656B" text-anchor="middle">1</text>
<rect x="916" y="316" width="25" height="32" rx="2" fill="#E8E8E2" stroke="#FAF9F6" stroke-width="1.4"/>
<text x="928.5" y="339" font-family="Arial, sans-serif" font-size="22" font-weight="400" fill="#5E656B" text-anchor="middle">1</text>
<rect x="916" y="359" width="25" height="32" rx="2" fill="#E8E8E2" stroke="#FAF9F6" stroke-width="1.4"/>
<text x="928.5" y="382" font-family="Arial, sans-serif" font-size="22" font-weight="400" fill="#5E656B" text-anchor="middle">1</text>
<rect x="943" y="316" width="25" height="32" rx="2" fill="#FADED1" stroke="#CD461A" stroke-width="1.4"/>
<text x="955.5" y="339" font-family="Arial, sans-serif" font-size="22" font-weight="400" fill="#CD461A" text-anchor="middle">0</text>
<rect x="943" y="359" width="25" height="32" rx="2" fill="#CD461A" stroke="#CD461A" stroke-width="1.4"/>
<text x="955.5" y="382" font-family="Arial, sans-serif" font-size="22" font-weight="700" fill="#fff" text-anchor="middle">1</text>
<rect x="970" y="316" width="25" height="32" rx="2" fill="#E8E8E2" stroke="#FAF9F6" stroke-width="1.4"/>
<text x="982.5" y="339" font-family="Arial, sans-serif" font-size="22" font-weight="400" fill="#5E656B" text-anchor="middle">0</text>
<rect x="970" y="359" width="25" height="32" rx="2" fill="#E8E8E2" stroke="#FAF9F6" stroke-width="1.4"/>
<text x="982.5" y="382" font-family="Arial, sans-serif" font-size="22" font-weight="400" fill="#5E656B" text-anchor="middle">0</text>
<rect x="997" y="316" width="25" height="32" rx="2" fill="#E8E8E2" stroke="#FAF9F6" stroke-width="1.4"/>
<text x="1009.5" y="339" font-family="Arial, sans-serif" font-size="22" font-weight="400" fill="#5E656B" text-anchor="middle">1</text>
<rect x="997" y="359" width="25" height="32" rx="2" fill="#E8E8E2" stroke="#FAF9F6" stroke-width="1.4"/>
<text x="1009.5" y="382" font-family="Arial, sans-serif" font-size="22" font-weight="400" fill="#5E656B" text-anchor="middle">1</text>
<text x="160" y="421" font-family="Arial, sans-serif" font-size="21" font-weight="600" fill="#CD461A" text-anchor="start">8 / 32 differ</text>
<text x="1024" y="421" font-family="Arial, sans-serif" font-size="20" font-weight="400" fill="#5E656B" text-anchor="end">Two samples detect disagreement.</text></svg>